PathFileType	4	(X/Y/Z)	C:/Users/beibeiliu/ov580/test_trc\sequence.44_training_dense_right.trc
DataRate	CameraRate	NumFrames	NumMarkers	Units	OrigDataRate	OrigDataStartFrame	OrigNumFrames
120	120	8	19	mm	120	1	73
Frame#	Time	ThumbCMC			ThumbMCP			ThumbIP			ThumbTip			IndexMCP			IndexPIP			IndexTip			MiddleMCP			MiddlePIP			MiddleTip			RingMCP			RingPIP			RingTip			PinkyMCP			PinkyPIP			PinkyTip			BackHand1			BackHand2			BackHand3	
		X0	Y0	Z0	X1	Y1	Z1	X2	Y2	Z2	X3	Y3	Z3	X4	Y4	Z4	X5	Y5	Z5	X6	Y6	Z6	X7	Y7	Z7	X8	Y8	Z8	X9	Y9	Z9	X10	Y10	Z10	X11	Y11	Z11	X12	Y12	Z12	X13	Y13	Z13	X14	Y14	Z14	X15	Y15	Z15	X16	Y16	Z16	X17	Y17	Z17	X18	Y18	Z18	
0	0	91.1355	-3.98519	-20.8759	72.7261	-21.9968	-39.2907	66.2024	-33.2584	-59.513	61.0454	-43.2377	-75.5609	108.647	6.86532	-84.9945	111.922	1.85686	-111.727	110.167	-2.36619	-130.945	131.884	4.07735	-88.2783	132.024	0.71286	-113.04	139.367	-6.84801	-137.48	145.987	-4.6229	-81.1885	149.691	-11.053	-104.222	154.304	-19.6298	-124.382	160.191	-14.2926	-67.3238	167.13	-22.3651	-83.6711	173.825	-28.8259	-97.8435	140.158	8.05888	-38.0415	136.245	14.4699	-11.3278	113.362	16.3097	-27.8669	
1	0.00833333	102.468	-15.4422	-42.5031	92.4212	-34.4676	-54.3608	84.4074	-47.4599	-76.4524	75.3344	-59.1651	-87.9833	123.814	-3.67699	-100.549	126.275	-7.38546	-127.751	131.622	-18.1441	-148.491	144.086	-4.03874	-101.947	150.099	-10.0147	-131.605	158.145	-21.6902	-153.213	160.08	-12.3578	-97.1115	170.582	-20.897	-113.766	169.978	-33.6474	-136.235	174.376	-22.4084	-79.2892	182.892	-33.1747	-97.1489	183.677	-44.5623	-113.588	152.657	-0.268094	-51.8067	147.592	5.65733	-25.8573	125.24	8.26682	-46.54	
2	0.0166667	110.728	-22.9402	-49.0593	105.179	-45.2406	-67.3961	96.2729	-59.0754	-85.5833	92.572	-70.9148	-99.3897	136.267	-13.157	-111.821	137.23	-18.1532	-135.619	144.236	-32.0931	-155.102	157.742	-13.8055	-116.947	162.879	-23.1641	-141.183	170.83	-43.1543	-160.333	174.49	-21.6849	-104.111	178.68	-32.3853	-123.358	180.422	-52.1068	-139.571	186.191	-30.7596	-89.4805	192.287	-44.7754	-102.399	191.12	-58.7479	-116.036	164.113	-7.21814	-62.5183	160.367	-0.207096	-38.1799	137.002	1.42104	-55.8282	
3	0.025	113.814	-26.3727	-56.4167	105.161	-48.3388	-69.3196	101.458	-63.9547	-91.0172	97.0287	-78.6001	-104.189	139.764	-20.469	-114.596	143.946	-32.8176	-142.044	149.213	-50.7431	-155.718	166.516	-25.3821	-116.703	170.451	-42.3217	-141.849	171.28	-67.2357	-151.903	177.873	-32.7808	-108.268	181.604	-52.3393	-126.326	174.102	-74.2127	-132.207	188.328	-42.349	-89.4932	190.773	-58.4428	-101.789	181.208	-81.5828	-111.017	166.727	-12.7373	-65.989	162.703	-8.12571	-38.5388	139.657	-4.48096	-63.8418	
4	0.0333333	112.664	-23.3864	-57.891	103.396	-45.3753	-70.8409	98.5857	-60.8155	-90.6201	97.966	-77.7935	-105.326	145.499	-27.05	-115.566	144.508	-40.1317	-137.25	143.563	-65.2853	-145.776	162.33	-33.9677	-111.685	163.138	-58.6429	-135.164	154.465	-83.4201	-137.678	173.635	-45.6013	-99.1355	168.56	-69.4849	-118.1	153.796	-90.5871	-114.352	183.262	-56.2249	-81.2522	175.253	-78.1026	-96.4374	155.363	-90.9151	-92.732	167.668	-21.378	-58.833	166.577	-14.1545	-34.4338	147.074	-8.24898	-56.5919	
5	0.0416667	110.833	-16.6553	-54.0228	99.3124	-36.4061	-67.8682	93.2411	-49.9693	-83.8018	91.5211	-66.8502	-99.7512	140.577	-26.6559	-108.942	139.893	-48.002	-128.161	120.259	-68.7707	-133.145	158.479	-41.686	-103.63	151.671	-65.6001	-123.017	130.059	-84.7625	-118.69	162.782	-55.2615	-94.6384	152.434	-77.5835	-104.561	129.183	-85.2674	-96.3817	168.547	-68.7045	-75.6135	153.149	-81.5408	-85.1389	126.237	-85.5637	-73.528	167.125	-30.7592	-51.9557	160.678	-19.812	-29.8423	147.642	-9.80581	-53.3549	
6	0.05	106.777	-3.48708	-42.4605	87.5445	-16.0038	-60.4613	80.0989	-30.1732	-81.0137	76.5335	-48.0528	-94.0295	133.313	-20.9242	-97.9623	120.127	-38.1201	-117.853	100.687	-56.5779	-110.769	142.591	-38.1721	-94.7625	125.47	-59.4499	-109.114	99.3175	-69.0883	-94.8081	145.199	-57.5176	-81.5939	123.273	-72.2536	-87.7112	101.464	-69.6405	-73.0876	144.573	-64.5628	-62.8473	120.437	-75.5006	-66.1495	101.6	-61.3665	-52.176	154.644	-26.2606	-39.299	149.558	-16.1482	-16.7813	140.833	-3.47874	-41.9511	
7	0.0583333	99.6619	21.9421	-24.6553	79.5627	13.6353	-47.6772	70.0448	1.47938	-67.0999	63.0197	-16.6248	-82.6935	119.887	-3.22919	-85.3211	98.843	-19.841	-99.6154	72.9842	-24.0722	-87.0504	120.638	-27.3813	-80.6551	94.5015	-38.2582	-90.1282	70.8845	-35.6598	-65.5532	115.977	-44.3981	-66.679	89.2289	-48.4042	-67.2617	75.8258	-33.109	-51.1514	116.587	-50.0514	-48.2574	91.4977	-49.306	-51.1245	79.9294	-30.6475	-32.2658	140.32	-18.292	-29.5041	137.657	-6.58286	-0.253101	132.699	11.7703	-25.1622	
